<svg xmlns="http://www.w3.org/2000/svg" viewBox="0 0 160 160" width="160" height="160">
  <rect width="100%" height="100%" fill="none"/>
  <g transform="translate(10,10)">
    <!-- outer leaves -->
    <path d="M20 80 C 30 30, 80 10, 120 40 C 140 60, 130 110, 80 120 C 40 125, 10 100, 20 80" fill="#5fc24a" stroke="#347a20" stroke-width="2"/>
    <!-- inner leaves -->
    <path d="M40 75 C 55 40, 95 30, 110 60 C 95 85, 60 90, 40 75" fill="#87e26c"/>
    <path d="M55 85 C 70 55, 90 55, 100 80 C 85 95, 65 95, 55 85" fill="#c7f7b7" opacity="0.9"/>
    <!-- veins -->
    <path d="M70 60 C 68 72, 72 80, 80 90" stroke="#2f7a1b" stroke-width="1" fill="none" opacity="0.7"/>
    <path d="M50 70 C 48 82, 52 88, 60 98" stroke="#2f7a1b" stroke-width="1" fill="none" opacity="0.7"/>
  </g>
</svg>
