<svg xmlns="http://www.w3.org/2000/svg" viewBox="0 0 48 48">
  <path fill="#1565C0" d="M45,35c0,2.209-1.791,4-4,4H7c-2.209,0-4-1.791-4-4V13c0-2.209,1.791-4,4-4h34c2.209,0,4,1.791,4,4V35z"/>
  <path fill="#FFF" d="M15.186 19l-2.626 7.832c0 0-.667-3.313-.733-3.729-1.495-3.411-3.701-3.221-3.701-3.221L10.726 30v-.002h3.161L18.258 19H15.186zM17.689 30L20.56 19h2.799l-2.87 11H17.689zM28.093 19.055c-1.859 0-4.053 1.211-4.053 5.169 0 3.725 1.704 5.011 4.053 5.011 0 0 3.628 0.133 4.846-5.011h-1.996c0 0-.743 2.767-2.85 2.767s-2.5-2.767-2.5-2.767h7.444c0-.133.317-5.169-4.944-5.169zM25.633 22.189c0-.067.286-2.548 2.459-2.548s2.224 2.548 2.224 2.548H25.633zM38.141 19h-3.432l-4.635 11h2.801l.667-1.742h4.635l.434 1.742h2.568L38.141 19zM34.303 25.93L35.592 22.113 36.548 25.93H34.303z"/>
</svg>